<svg xmlns="http://www.w3.org/2000/svg" xmlns:xlink="http://www.w3.org/1999/xlink" contentStyleType="text/css" data-diagram-type="CLASS" height="1239px" preserveAspectRatio="none" style="width:2054px;height:1239px;background:#FFFFFF;" version="1.1" viewBox="0 0 2054 1239" width="2054px" zoomAndPan="magnify"><defs/><g><!--class Entrega--><g class="entity" data-entity="Entrega" data-source-line="17" data-uid="ent0002" id="entity_Entrega"><rect fill="#FFFFFF" height="145.7813" rx="5" ry="5" style="stroke:#000000;stroke-width:0.5;" width="181.9961" x="885" y="1087"/><ellipse cx="944.2266" cy="1103" fill="#ADD1B2" rx="11" ry="11" style="stroke:#181818;stroke-width:1;"/><path d="M947.1953,1108.6406 Q946.6172,1108.9375 945.9766,1109.0781 Q945.3359,1109.2344 944.6328,1109.2344 Q942.1328,1109.2344 940.8047,1107.5938 Q939.4922,1105.9375 939.4922,1102.8125 Q939.4922,1099.6875 940.8047,1098.0313 Q942.1328,1096.375 944.6328,1096.375 Q945.3359,1096.375 945.9766,1096.5313 Q946.6328,1096.6875 947.1953,1096.9844 L947.1953,1099.7031 Q946.5703,1099.125 945.9766,1098.8594 Q945.3828,1098.5781 944.7578,1098.5781 Q943.4141,1098.5781 942.7266,1099.6563 Q942.0391,1100.7188 942.0391,1102.8125 Q942.0391,1104.9063 942.7266,1105.9844 Q943.4141,1107.0469 944.7578,1107.0469 Q945.3828,1107.0469 945.9766,1106.7813 Q946.5703,1106.5 947.1953,1105.9219 L947.1953,1108.6406 Z " fill="#000000"/><text fill="#000000" font-family="Arial" font-size="14" lengthAdjust="spacing" textLength="55.043" x="964.7266" y="1107.8467">Entrega</text><line style="stroke:#000000;stroke-width:0.5;" x1="886" x2="1065.9961" y1="1119" y2="1119"/><text fill="#000000" font-family="Arial" font-size="14" lengthAdjust="spacing" textLength="52.2129" x="891" y="1135.9951">+id: str</text><text fill="#000000" font-family="Arial" font-size="14" lengthAdjust="spacing" textLength="91.0479" x="891" y="1152.292">+destino: str</text><text fill="#000000" font-family="Arial" font-size="14" lengthAdjust="spacing" textLength="85.709" x="891" y="1168.5889">+peso: float</text><text fill="#000000" font-family="Arial" font-size="14" lengthAdjust="spacing" textLength="91.4854" x="891" y="1184.8857">+prazo: float</text><text fill="#000000" font-family="Arial" font-size="14" lengthAdjust="spacing" textLength="169.9961" x="891" y="1201.1826">+origem: str {opcional}</text><line style="stroke:#000000;stroke-width:0.5;" x1="886" x2="1065.9961" y1="1208.4844" y2="1208.4844"/><text fill="#000000" font-family="Arial" font-size="14" lengthAdjust="spacing" textLength="107.3721" x="891" y="1225.4795">+__repr__(): str</text></g><!--class Caminhao--><g class="entity" data-entity="Caminhao" data-source-line="26" data-uid="ent0003" id="entity_Caminhao"><rect fill="#FFFFFF" height="292.4531" rx="5" ry="5" style="stroke:#000000;stroke-width:0.5;" width="516.6836" x="1000.5" y="683"/><ellipse cx="1219.2056" cy="699" fill="#ADD1B2" rx="11" ry="11" style="stroke:#181818;stroke-width:1;"/><path d="M1222.1743,704.6406 Q1221.5962,704.9375 1220.9556,705.0781 Q1220.3149,705.2344 1219.6118,705.2344 Q1217.1118,705.2344 1215.7837,703.5938 Q1214.4712,701.9375 1214.4712,698.8125 Q1214.4712,695.6875 1215.7837,694.0313 Q1217.1118,692.375 1219.6118,692.375 Q1220.3149,692.375 1220.9556,692.5313 Q1221.6118,692.6875 1222.1743,692.9844 L1222.1743,695.7031 Q1221.5493,695.125 1220.9556,694.8594 Q1220.3618,694.5781 1219.7368,694.5781 Q1218.3931,694.5781 1217.7056,695.6563 Q1217.0181,696.7188 1217.0181,698.8125 Q1217.0181,700.9063 1217.7056,701.9844 Q1218.3931,703.0469 1219.7368,703.0469 Q1220.3618,703.0469 1220.9556,702.7813 Q1221.5493,702.5 1222.1743,701.9219 L1222.1743,704.6406 Z " fill="#000000"/><text fill="#000000" font-family="Arial" font-size="14" lengthAdjust="spacing" textLength="70.7725" x="1239.7056" y="703.8467">Caminhao</text><line style="stroke:#000000;stroke-width:0.5;" x1="1001.5" x2="1516.1836" y1="715" y2="715"/><text fill="#000000" font-family="Arial" font-size="14" lengthAdjust="spacing" textLength="52.2129" x="1006.5" y="731.9951">+id: str</text><text fill="#000000" font-family="Arial" font-size="14" lengthAdjust="spacing" textLength="195.6514" x="1006.5" y="748.292">+capacidade_kg_total: float</text><text fill="#000000" font-family="Arial" font-size="14" lengthAdjust="spacing" textLength="205.8506" x="1006.5" y="764.5889">+capacidade_kg_usada: float</text><text fill="#000000" font-family="Arial" font-size="14" lengthAdjust="spacing" textLength="262.917" x="1006.5" y="780.8857">+horas_operacao_maximas_dia: float</text><text fill="#000000" font-family="Arial" font-size="14" lengthAdjust="spacing" textLength="175.3418" x="1006.5" y="797.1826">+tempo_rota_atual: float</text><text fill="#000000" font-family="Arial" font-size="14" lengthAdjust="spacing" textLength="252.9023" x="1006.5" y="813.4795">+centro_origem: CentroDistribuicao</text><text fill="#000000" font-family="Arial" font-size="14" lengthAdjust="spacing" textLength="185.9785" x="1006.5" y="829.7764">+entregas: List&lt;Entrega&gt;</text><text fill="#000000" font-family="Arial" font-size="14" lengthAdjust="spacing" textLength="115.7598" x="1006.5" y="846.0732">+rota: List&lt;str&gt;</text><line style="stroke:#000000;stroke-width:0.5;" x1="1001.5" x2="1516.1836" y1="853.375" y2="853.375"/><text fill="#000000" font-family="Arial" font-size="14" lengthAdjust="spacing" textLength="358.7158" x="1006.5" y="870.3701">+adicionar_entrega_a_lista(entrega: Entrega): void</text><text fill="#000000" font-family="Arial" font-size="14" lengthAdjust="spacing" textLength="362.1133" x="1006.5" y="886.667">+remover_entrega_da_lista(entrega: Entrega): void</text><text fill="#000000" font-family="Arial" font-size="14" lengthAdjust="spacing" textLength="504.6836" x="1006.5" y="902.9639">+atualizar_rota_e_tempo(nova_rota: List&lt;str&gt;, tempo_total: float): void</text><text fill="#000000" font-family="Arial" font-size="14" lengthAdjust="spacing" textLength="358.7227" x="1006.5" y="919.2607">+pode_adicionar_carga(peso_adicional: float): bool</text><text fill="#000000" font-family="Arial" font-size="14" lengthAdjust="spacing" textLength="316.5313" x="1006.5" y="935.5576">+&#171;property&#187; capacidade_kg_disponivel: float</text><text fill="#000000" font-family="Arial" font-size="14" lengthAdjust="spacing" textLength="332.7939" x="1006.5" y="951.8545">+&#171;property&#187; horas_disponiveis_para_rota: float</text><text fill="#000000" font-family="Arial" font-size="14" lengthAdjust="spacing" textLength="107.3721" x="1006.5" y="968.1514">+__repr__(): str</text></g><!--class CentroDistribuicao--><g class="entity" data-entity="CentroDistribuicao" data-source-line="45" data-uid="ent0004" id="entity_CentroDistribuicao"><rect fill="#FFFFFF" height="113.1875" rx="5" ry="5" style="stroke:#000000;stroke-width:0.5;" width="362.4922" x="1000" y="433.5"/><ellipse cx="1111.665" cy="449.5" fill="#ADD1B2" rx="11" ry="11" style="stroke:#181818;stroke-width:1;"/><path d="M1114.6338,455.1406 Q1114.0557,455.4375 1113.415,455.5781 Q1112.7744,455.7344 1112.0713,455.7344 Q1109.5713,455.7344 1108.2432,454.0938 Q1106.9307,452.4375 1106.9307,449.3125 Q1106.9307,446.1875 1108.2432,444.5313 Q1109.5713,442.875 1112.0713,442.875 Q1112.7744,442.875 1113.415,443.0313 Q1114.0713,443.1875 1114.6338,443.4844 L1114.6338,446.2031 Q1114.0088,445.625 1113.415,445.3594 Q1112.8213,445.0781 1112.1963,445.0781 Q1110.8525,445.0781 1110.165,446.1563 Q1109.4775,447.2188 1109.4775,449.3125 Q1109.4775,451.4063 1110.165,452.4844 Q1110.8525,453.5469 1112.1963,453.5469 Q1112.8213,453.5469 1113.415,453.2813 Q1114.0088,453 1114.6338,452.4219 L1114.6338,455.1406 Z " fill="#000000"/><text fill="#000000" font-family="Arial" font-size="14" lengthAdjust="spacing" textLength="130.6621" x="1132.165" y="454.3467">CentroDistribuicao</text><line style="stroke:#000000;stroke-width:0.5;" x1="1001" x2="1361.4922" y1="465.5" y2="465.5"/><text fill="#000000" font-family="Arial" font-size="14" lengthAdjust="spacing" textLength="85.9893" x="1006" y="482.4951">+cidade: str</text><text fill="#000000" font-family="Arial" font-size="14" lengthAdjust="spacing" textLength="215.626" x="1006" y="498.792">+caminhoes: List&lt;Caminhao&gt;</text><line style="stroke:#000000;stroke-width:0.5;" x1="1001" x2="1361.4922" y1="506.0938" y2="506.0938"/><text fill="#000000" font-family="Arial" font-size="14" lengthAdjust="spacing" textLength="350.4922" x="1006" y="523.0889">+adicionar_caminhao(caminhao: Caminhao): void</text><text fill="#000000" font-family="Arial" font-size="14" lengthAdjust="spacing" textLength="107.3721" x="1006" y="539.3857">+__repr__(): str</text></g><!--class GrafoListaAdjacencia--><g class="entity" data-entity="GrafoListaAdjacencia" data-source-line="54" data-uid="ent0005" id="entity_GrafoListaAdjacencia"><rect fill="#FFFFFF" height="162.0781" rx="5" ry="5" style="stroke:#000000;stroke-width:0.5;" width="467.5537" x="7" y="409"/><ellipse cx="162.521" cy="425" fill="#ADD1B2" rx="11" ry="11" style="stroke:#181818;stroke-width:1;"/><path d="M165.4897,430.6406 Q164.9116,430.9375 164.271,431.0781 Q163.6304,431.2344 162.9272,431.2344 Q160.4272,431.2344 159.0991,429.5938 Q157.7866,427.9375 157.7866,424.8125 Q157.7866,421.6875 159.0991,420.0313 Q160.4272,418.375 162.9272,418.375 Q163.6304,418.375 164.271,418.5313 Q164.9272,418.6875 165.4897,418.9844 L165.4897,421.7031 Q164.8647,421.125 164.271,420.8594 Q163.6772,420.5781 163.0522,420.5781 Q161.7085,420.5781 161.021,421.6563 Q160.3335,422.7188 160.3335,424.8125 Q160.3335,426.9063 161.021,427.9844 Q161.7085,429.0469 163.0522,429.0469 Q163.6772,429.0469 164.271,428.7813 Q164.8647,428.5 165.4897,427.9219 L165.4897,430.6406 Z " fill="#000000"/><text fill="#000000" font-family="Arial" font-size="14" lengthAdjust="spacing" textLength="148.0117" x="183.021" y="429.8467">GrafoListaAdjacencia</text><line style="stroke:#000000;stroke-width:0.5;" x1="8" x2="473.5537" y1="441" y2="441"/><text fill="#000000" font-family="Arial" font-size="14" lengthAdjust="spacing" textLength="324.3926" x="13" y="457.9951">#vertices: Dict&lt;str, List&lt;Tuple&lt;str, float&gt;&gt;&gt;</text><text fill="#000000" font-family="Arial" font-size="14" lengthAdjust="spacing" textLength="153.4463" x="13" y="474.292">#tipo_fila_dijkstra: str</text><line style="stroke:#000000;stroke-width:0.5;" x1="8" x2="473.5537" y1="481.5938" y2="481.5938"/><text fill="#000000" font-family="Arial" font-size="14" lengthAdjust="spacing" textLength="282.9736" x="13" y="498.5889">+__init__(tipo_fila_dijkstra: str = "heap")</text><text fill="#000000" font-family="Arial" font-size="14" lengthAdjust="spacing" textLength="425.626" x="13" y="514.8857">+adicionar_aresta(origem: str, destino: str, peso: float): void</text><text fill="#000000" font-family="Arial" font-size="14" lengthAdjust="spacing" textLength="275.1191" x="13" y="531.1826">#dijkstra(origem: str): Tuple[Dict, Dict]</text><text fill="#000000" font-family="Arial" font-size="14" lengthAdjust="spacing" textLength="455.5537" x="13" y="547.4795">+caminho_mais_curto(origem: str, destino: str): Tuple[List, float]</text><text fill="#000000" font-family="Arial" font-size="14" lengthAdjust="spacing" textLength="107.3721" x="13" y="563.7764">+__repr__(): str</text></g><g class="entity" data-entity="GMN6" data-source-line="65" data-uid="ent0007" id="entity_GMN6"><path d="M510,452 L510,486 L475.1,490 L510,494 L510,527.6641 A5,5 0 0 0 515,532.6641 L889.1113,532.6641 A5,5 0 0 0 894.1113,527.6641 L894.1113,457 L884.1113,447 L515,447 A5,5 0 0 0 510,452" fill="#FFFFE0" style="stroke:#000000;stroke-width:0.5;"/><path d="M884.1113,447 L884.1113,454.5 A2.5,2.5 0 0 0 886.6113,457 L894.1113,457 L884.1113,447" fill="#FFFFE0" style="stroke:#000000;stroke-width:0.5;"/><text fill="#000000" font-family="Arial" font-size="13" lengthAdjust="spacing" textLength="363.1113" x="516" y="464.0669">Outras implementa&#231;&#245;es de grafo (Matriz de Adjac&#234;ncia,</text><text fill="#000000" font-family="Arial" font-size="13" lengthAdjust="spacing" textLength="278.6367" x="516" y="479.1997">Lista de Arestas, Dicion&#225;rio de Dicion&#225;rios,</text><text fill="#000000" font-family="Arial" font-size="13" lengthAdjust="spacing" textLength="337.9683" x="516" y="494.3325">Grafo com Objetos, NetworkX) foram desenvolvidas</text><text fill="#000000" font-family="Arial" font-size="13" lengthAdjust="spacing" textLength="324.4351" x="516" y="509.4653">para compara&#231;&#227;o, seguindo uma interface similar</text><text fill="#000000" font-family="Arial" font-size="13" lengthAdjust="spacing" textLength="178.5596" x="516" y="524.5981">para 'caminho_mais_curto'.</text></g><!--class Roteirizador--><g class="entity" data-entity="Roteirizador" data-source-line="72" data-uid="ent0009" id="entity_Roteirizador"><rect fill="#FFFFFF" height="178.375" rx="5" ry="5" style="stroke:#000000;stroke-width:0.5;" width="487.1934" x="703.5" y="154"/><ellipse cx="900.3135" cy="170" fill="#ADD1B2" rx="11" ry="11" style="stroke:#181818;stroke-width:1;"/><path d="M903.2822,175.6406 Q902.7041,175.9375 902.0635,176.0781 Q901.4229,176.2344 900.7197,176.2344 Q898.2197,176.2344 896.8916,174.5938 Q895.5791,172.9375 895.5791,169.8125 Q895.5791,166.6875 896.8916,165.0313 Q898.2197,163.375 900.7197,163.375 Q901.4229,163.375 902.0635,163.5313 Q902.7197,163.6875 903.2822,163.9844 L903.2822,166.7031 Q902.6572,166.125 902.0635,165.8594 Q901.4697,165.5781 900.8447,165.5781 Q899.501,165.5781 898.8135,166.6563 Q898.126,167.7188 898.126,169.8125 Q898.126,171.9063 898.8135,172.9844 Q899.501,174.0469 900.8447,174.0469 Q901.4697,174.0469 902.0635,173.7813 Q902.6572,173.5 903.2822,172.9219 L903.2822,175.6406 Z " fill="#000000"/><text fill="#000000" font-family="Arial" font-size="14" lengthAdjust="spacing" textLength="85.0664" x="920.8135" y="174.8467">Roteirizador</text><line style="stroke:#000000;stroke-width:0.5;" x1="704.5" x2="1189.6934" y1="186" y2="186"/><text fill="#000000" font-family="Arial" font-size="14" lengthAdjust="spacing" textLength="245.1025" x="709.5" y="202.9951">-centros: List&lt;CentroDistribuicao&gt;</text><text fill="#000000" font-family="Arial" font-size="14" lengthAdjust="spacing" textLength="179.2998" x="709.5" y="219.292">-entregas: List&lt;Entrega&gt;</text><text fill="#000000" font-family="Arial" font-size="14" lengthAdjust="spacing" textLength="376.4141" x="709.5" y="235.5889">-grafo: GrafoListaAdjacencia 'ou outra interface Grafo</text><line style="stroke:#000000;stroke-width:0.5;" x1="704.5" x2="1189.6934" y1="242.8906" y2="242.8906"/><text fill="#000000" font-family="Arial" font-size="14" lengthAdjust="spacing" textLength="241.7051" x="709.5" y="259.8857">+__init__(centros, entregas, grafo)</text><text fill="#000000" font-family="Arial" font-size="14" lengthAdjust="spacing" textLength="219.7822" x="709.5" y="276.1826">+alocar_entregas(): List&lt;Dict&gt;</text><text fill="#000000" font-family="Arial" font-size="14" lengthAdjust="spacing" textLength="475.1934" x="709.5" y="292.4795">-centro_mais_proximo(destino: str): Tuple[CentroDistribuicao, float]</text><text fill="#000000" font-family="Arial" font-size="14" lengthAdjust="spacing" textLength="335.6992" x="709.5" y="308.7764">-_calcular_melhor_rota_para_destinos(...): Tuple</text><text fill="#000000" font-family="Arial" font-size="14" lengthAdjust="spacing" textLength="260.415" x="709.5" y="325.0732">-_verificar_prazos_para_rota(...): bool</text></g><!--class Simulador--><g class="entity" data-entity="Simulador" data-source-line="84" data-uid="ent0010" id="entity_Simulador"><rect fill="#FFFFFF" height="64.2969" rx="5" ry="5" style="stroke:#000000;stroke-width:0.5;" width="421.3906" x="736.5" y="9.5"/><ellipse cx="907.4634" cy="25.5" fill="#ADD1B2" rx="11" ry="11" style="stroke:#181818;stroke-width:1;"/><path d="M910.4321,31.1406 Q909.854,31.4375 909.2134,31.5781 Q908.5728,31.7344 907.8696,31.7344 Q905.3696,31.7344 904.0415,30.0938 Q902.729,28.4375 902.729,25.3125 Q902.729,22.1875 904.0415,20.5313 Q905.3696,18.875 907.8696,18.875 Q908.5728,18.875 909.2134,19.0313 Q909.8696,19.1875 910.4321,19.4844 L910.4321,22.2031 Q909.8071,21.625 909.2134,21.3594 Q908.6196,21.0781 907.9946,21.0781 Q906.6509,21.0781 905.9634,22.1563 Q905.2759,23.2188 905.2759,25.3125 Q905.2759,27.4063 905.9634,28.4844 Q906.6509,29.5469 907.9946,29.5469 Q908.6196,29.5469 909.2134,29.2813 Q909.8071,29 910.4321,28.4219 L910.4321,31.1406 Z " fill="#000000"/><text fill="#000000" font-family="Arial" font-size="14" lengthAdjust="spacing" textLength="70.9639" x="927.9634" y="30.3467">Simulador</text><line style="stroke:#000000;stroke-width:0.5;" x1="737.5" x2="1156.8906" y1="41.5" y2="41.5"/><line style="stroke:#000000;stroke-width:0.5;" x1="737.5" x2="1156.8906" y1="49.5" y2="49.5"/><text fill="#000000" font-family="Arial" font-size="14" lengthAdjust="spacing" textLength="409.3906" x="742.5" y="66.4951">+simular_cenario_completo(): void ' Nome mais descritivo</text></g><g class="entity" data-entity="GMN11" data-source-line="90" data-uid="ent0012" id="entity_GMN11"><path d="M501,11 L501,71.5313 A5,5 0 0 0 506,76.5313 L695.7817,76.5313 A5,5 0 0 0 700.7817,71.5313 L700.7817,45.5 L736.09,41.5 L700.7817,37.5 L700.7817,16 L690.7817,6 L506,6 A5,5 0 0 0 501,11" fill="#FFFFE0" style="stroke:#000000;stroke-width:0.5;"/><path d="M690.7817,6 L690.7817,13.5 A2.5,2.5 0 0 0 693.2817,16 L700.7817,16 L690.7817,6" fill="#FFFFE0" style="stroke:#000000;stroke-width:0.5;"/><text fill="#000000" font-family="Arial" font-size="13" lengthAdjust="spacing" textLength="178.7817" x="507" y="23.0669">Respons&#225;vel por configurar</text><text fill="#000000" font-family="Arial" font-size="13" lengthAdjust="spacing" textLength="155.9111" x="507" y="38.1997">e executar a simula&#231;&#227;o,</text><text fill="#000000" font-family="Arial" font-size="13" lengthAdjust="spacing" textLength="158.6152" x="507" y="53.3325">utilizando o Roteirizador</text><text fill="#000000" font-family="Arial" font-size="13" lengthAdjust="spacing" textLength="144.0156" x="507" y="68.4653">e exibindo resultados.</text></g><!--link CentroDistribuicao to Caminhao--><g class="link" data-entity-1="CentroDistribuicao" data-entity-2="Caminhao" data-source-line="97" data-uid="lnk14" id="link_CentroDistribuicao_Caminhao"><path codeLine="97" d="M1127.8697,556.648 C1107.6497,587.618 1097.83,617.04 1111,653 C1114.73,663.18 1116.4867,667.9019 1121.7467,677.6319" fill="none" id="CentroDistribuicao-Caminhao" style="stroke:#000000;stroke-width:1;"/><polygon fill="none" points="1134.43,546.6,1127.8005,549.4373,1127.8697,556.648,1134.4992,553.8108,1134.43,546.6" style="stroke:#000000;stroke-width:1;"/><polygon fill="#000000" points="1124.6,682.91,1123.8388,673.0906,1122.2222,678.5116,1116.8013,676.895,1124.6,682.91" style="stroke:#000000;stroke-width:1;"/><text fill="#000000" font-family="Arial" font-size="13" lengthAdjust="spacing" textLength="41.6025" x="1304.647" y="614.0669">possui</text><path d="M1116,628.1328 L1116,643.1328 A5,5 0 0 0 1121,648.1328 L1529,648.1328 A5,5 0 0 0 1534,643.1328 L1534,633.1328 L1524,623.1328 L1121,623.1328 A5,5 0 0 0 1116,628.1328" fill="#FFFFE0" style="stroke:#000000;stroke-width:0.5;"/><path d="M1524,623.1328 L1524,630.6328 A2.5,2.5 0 0 0 1526.5,633.1328 L1534,633.1328 L1524,623.1328" fill="#FFFFE0" style="stroke:#000000;stroke-width:0.5;"/><text fill="#000000" font-family="Arial" font-size="13" lengthAdjust="spacing" textLength="397.8965" x="1122" y="640.1997">Um Centro de Distribui&#231;&#227;o pode ter zero ou mais caminh&#245;es.</text><text fill="#000000" font-family="Arial" font-size="13" lengthAdjust="spacing" textLength="8.271" x="1119.9365" y="566.8762">1</text><text fill="#000000" font-family="Arial" font-size="13" lengthAdjust="spacing" textLength="23.0356" x="1094.0861" y="672.0492">0..*</text></g><!--link Caminhao to CentroDistribuicao--><g class="link" data-entity-1="Caminhao" data-entity-2="CentroDistribuicao" data-source-line="103" data-uid="lnk16" id="link_Caminhao_CentroDistribuicao"><path codeLine="103" d="M1517.68,712.98 C1555.98,680.35 1573.63,642.33 1543,601 C1519.82,569.74 1440.54,543.85 1362.06,525.05" fill="none" id="Caminhao-CentroDistribuicao" style="stroke:#000000;stroke-width:1;"/><text fill="#000000" font-family="Arial" font-size="13" lengthAdjust="spacing" textLength="167.6416" x="1721.4321" y="614.0669">origina-se de / pertence a</text><path d="M1563,628.1328 L1563,643.1328 A5,5 0 0 0 1568,648.1328 L2042,648.1328 A5,5 0 0 0 2047,643.1328 L2047,633.1328 L2037,623.1328 L1568,623.1328 A5,5 0 0 0 1563,628.1328" fill="#FFFFE0" style="stroke:#000000;stroke-width:0.5;"/><path d="M2037,623.1328 L2037,630.6328 A2.5,2.5 0 0 0 2039.5,633.1328 L2047,633.1328 L2037,623.1328" fill="#FFFFE0" style="stroke:#000000;stroke-width:0.5;"/><text fill="#000000" font-family="Arial" font-size="13" lengthAdjust="spacing" textLength="463.5059" x="1569" y="640.1997">Cada Caminh&#227;o est&#225; vinculado a um Centro de Distribui&#231;&#227;o de origem.</text><text fill="#000000" font-family="Arial" font-size="13" lengthAdjust="spacing" textLength="8.271" x="1525.487" y="706.3751">1</text><text fill="#000000" font-family="Arial" font-size="13" lengthAdjust="spacing" textLength="8.271" x="1370.4405" y="523.364">1</text></g><!--link Caminhao to Entrega--><g class="link" data-entity-1="Caminhao" data-entity-2="Entrega" data-source-line="100" data-uid="lnk15" id="link_Caminhao_Entrega"><path codeLine="100" d="M1126.2244,984.3572 C1093.0544,1022.9172 1070.3923,1049.2609 1042.1923,1082.0509" fill="none" id="Caminhao-Entrega" style="stroke:#000000;stroke-width:1;"/><polygon fill="none" points="1134.05,975.26,1127.1048,977.2001,1126.2244,984.3572,1133.1696,982.4172,1134.05,975.26" style="stroke:#000000;stroke-width:1;"/><polygon fill="#000000" points="1038.28,1086.6,1047.1811,1082.3846,1041.5402,1082.8091,1041.1157,1077.1682,1038.28,1086.6" style="stroke:#000000;stroke-width:1;"/><text fill="#000000" font-family="Arial" font-size="13" lengthAdjust="spacing" textLength="68.0342" x="1261.3755" y="1018.0669">transporta</text><path d="M1105,1032.1328 L1105,1047.1328 A5,5 0 0 0 1110,1052.1328 L1480,1052.1328 A5,5 0 0 0 1485,1047.1328 L1485,1037.1328 L1475,1027.1328 L1110,1027.1328 A5,5 0 0 0 1105,1032.1328" fill="#FFFFE0" style="stroke:#000000;stroke-width:0.5;"/><path d="M1475,1027.1328 L1475,1034.6328 A2.5,2.5 0 0 0 1477.5,1037.1328 L1485,1037.1328 L1475,1027.1328" fill="#FFFFE0" style="stroke:#000000;stroke-width:0.5;"/><text fill="#000000" font-family="Arial" font-size="13" lengthAdjust="spacing" textLength="359.7852" x="1111" y="1044.1997">Um Caminh&#227;o pode transportar zero ou mais entregas.</text><text fill="#000000" font-family="Arial" font-size="13" lengthAdjust="spacing" textLength="8.271" x="1119.0141" y="995.7269">1</text><text fill="#000000" font-family="Arial" font-size="13" lengthAdjust="spacing" textLength="23.0356" x="1020.1219" y="1075.9729">0..*</text></g><!--link Roteirizador to CentroDistribuicao--><g class="link" data-entity-1="Roteirizador" data-entity-2="CentroDistribuicao" data-source-line="107" data-uid="lnk17" id="link_Roteirizador_CentroDistribuicao"><path codeLine="107" d="M1031.15,332.1 C1063.38,365.85 1095.085,399.0519 1123.645,428.9419" fill="none" id="Roteirizador-to-CentroDistribuicao" style="stroke:#000000;stroke-width:1;stroke-dasharray:7.0,7.0;"/><polygon fill="#000000" points="1127.79,433.28,1124.4645,424.0096,1124.3358,429.665,1118.6804,429.5363,1127.79,433.28" style="stroke:#000000;stroke-width:1;"/><text fill="#000000" font-family="Arial" font-size="13" lengthAdjust="spacing" textLength="38.9619" x="1072" y="375.0669">utiliza</text></g><!--link Roteirizador to Entrega--><g class="link" data-entity-1="Roteirizador" data-entity-2="Entrega" data-source-line="108" data-uid="lnk18" id="link_Roteirizador_Entrega"><path codeLine="108" d="M949.79,332.15 C955.51,512.54 968.26,914.773 973.52,1080.773" fill="none" id="Roteirizador-to-Entrega" style="stroke:#000000;stroke-width:1;stroke-dasharray:7.0,7.0;"/><polygon fill="#000000" points="973.71,1086.77,977.423,1077.6478,973.5516,1081.7725,969.427,1077.9012,973.71,1086.77" style="stroke:#000000;stroke-width:1;"/><text fill="#000000" font-family="Arial" font-size="13" lengthAdjust="spacing" textLength="58.208" x="961" y="631.5669">processa</text></g><!--link Roteirizador to GrafoListaAdjacencia--><g class="link" data-entity-1="Roteirizador" data-entity-2="GrafoListaAdjacencia" data-source-line="109" data-uid="lnk19" id="link_Roteirizador_GrafoListaAdjacencia"><path codeLine="109" d="M703.05,328.66 C628.02,354.7 551.3683,381.2928 477.2583,407.0128" fill="none" id="Roteirizador-to-GrafoListaAdjacencia" style="stroke:#000000;stroke-width:1;stroke-dasharray:7.0,7.0;"/><polygon fill="#000000" points="471.59,408.98,481.404,409.8081,476.3136,407.3407,478.781,402.2503,471.59,408.98" style="stroke:#000000;stroke-width:1;"/><text fill="#000000" font-family="Arial" font-size="13" lengthAdjust="spacing" textLength="38.9619" x="595" y="375.0669">utiliza</text></g><!--link Simulador to Roteirizador--><g class="link" data-entity-1="Simulador" data-entity-2="Roteirizador" data-source-line="111" data-uid="lnk20" id="link_Simulador_Roteirizador"><path codeLine="111" d="M947,73.67 C947,95.26 947,119.16 947,147.77" fill="none" id="Simulador-to-Roteirizador" style="stroke:#000000;stroke-width:1;stroke-dasharray:7.0,7.0;"/><polygon fill="#000000" points="947,153.77,951,144.77,947,148.77,943,144.77,947,153.77" style="stroke:#000000;stroke-width:1;"/><text fill="#000000" font-family="Arial" font-size="13" lengthAdjust="spacing" textLength="52.1396" x="948" y="120.0669">executa</text></g><!--SRC=[ZLTFRoCr5B_dKrZf8IaaeNkDIgHkko0aw4fTa41eDN9cdDIDns-mFUdIrNuCxbGSq795tBZbso0-13_RCvcPT5BHIpls-_z-x_VS4RiIAwcbpeWH4zP9HMnCHIf9SpLX1JUSvKBTac4S7xi_T2hvwS1kfFPtEKiLj_R2EIENfHDVfQJVo0V1pbeYcLZnKhalIBjhdWjsOIHNhNjxopEwbthDLbnPqRenLEei9QE5OI_E3hsozmE6dvSytQo3v2KfnFcrNDywzi-VV__xwoz1uC8OkeztBnM4enQPJ9ZswOUMVKrEF6V-1w4KtHyrD1Yrwifj35VOGGpxbNP6h7bb_rEPpPbr9dvalWUQMYU5iFXSAUAkEZ3yeNj2Hgv57dJO-xfv7-9TaXXHc2GPdqQR22v6SSbpgMyvzOQHejcfp7WcaiqwSUIuwdZitfUMPxnp3xnmcr0X34yv9Jb_9tCSPB8hvaHUK69WFk6kFFGXK2TAwkGkm-ULj05g4cQZc8ZLj7DqnhhpghYBUEbDLnVGYuT94kzu9aEbJ5API7YY8Cd7rVUyxXHAjoMPLIP5JblHA6N_Ioka9n_WB6Ghaf3wMDEM9mT1JbWiIxlg7Li5eUnDz2atQpxsCDaVjjIMH2ggdPyNndV4_RnOi6u3CsaBqd8hkXteQCIMxYMbJVoeLC6tb8u3xaa3Q-Z5G3hmyzWaKJUrnkgn1gRL_RZ-Oxw7TwToFR6Ds0sEX4LmF4mhatcXHEw_Tx_lVYDM60dIAxXYkFxIy1KOqaV5GMpi8hlZQSsACSyW4WJ2fV1tLQOd08wJgS_hIgQXtPEOuRSbdCRlKCl58kPwuYIWi98AG9Dt6mZmfavr8P84LEEGrX5XzZaRtWfU34yF2yUHEQ3R8f09QrCGDa13F-rIdjGEsheG27dyw9ERX1JVTXeA8W1kqj8uEkvpRyKNfYh7ssFz2qHj0kFJghVqq7nT8b3RRUnVmlh-hMC_l-40vSD1GoTGRHeTAcL3LgZTxj58ykUjJ-iL8a1IojdhvPrmE6JNmjsJsNn_obOKzo7GjYMr1UmjLCAIXOR_7I0tOLQiox0yoXo0r4wO5T9XLkPehgbrHa_BEfeDXCx2_ghdxWP_IsI79Mig74uZj-x7wybaHl1Dd-FMQIZTl1_k8oeP-QgtWW-2_RYjmfcmsk4aDgR6gwAqeMdhkn_YyG1Rj1EAXG1fOTtGk1TKJtFjG6mABb5fYI8dyTaJ-JfGNMNFZcUpMMslKi9SovNqGORjtEB6IZZGy9uAtyWSBff-ZDX5V42HPPxTyIR2YuTowMI68oiySXeYyXZ6KQaZsNTgQeDfKAB0V4jAFAuKS3YkfXU-hWcFC5yfZyJKmCcMwb5IOXKcQHyXhDu8p_bszuZzWF0CiAfNSbsQW4J1n3kHbexZXSYYzmXYt9LuJm9uyNNPnc6b9vS1v1Wjl0znRjlezSoCzvHFqIUCEWG0jDzJFIjb-6B8Q3fTiE7PRFR9i7dcp16wjQMCUP9cIkhDd7sNLuif3dDbgM9-j0BBsB07WNj0EXGj3fqdaDbWi3T_wBT-vCqPfa2ZWCRn7jVHrjxNNlJ0PmtzGu_JQVZLKuSvymGhDPy2FJ3z6VEB7DE90Xx4SOdNMoiIe7ptoBR0Ma00kbe-KoESH2P7Q8CErSncY_x0AbGybMvgXX76bhGzChrqqzWSDAFbfJlgyngf7bklzqojtUvZ3fx2YENrPh2q1DBYkmHaz5CfMdCPax8znK2xQfAOmSShP01mLmF1TXzZCu5vQGJM2ZpG4btXw0t-xoejDK-CSD8EV_OV]--></g></svg>