<svg xmlns="http://www.w3.org/2000/svg" xmlns:xlink="http://www.w3.org/1999/xlink" contentStyleType="text/css" data-diagram-type="CLASS" height="573px" preserveAspectRatio="none" style="width:2793px;height:573px;" version="1.1" viewBox="0 0 2793 573" width="2793px" zoomAndPan="magnify"><defs/><g><!--class Entrega--><g class="entity" data-entity="Entrega" data-source-line="20" data-uid="ent0002" id="entity_Entrega"><rect fill="#FFFFFF" height="145.7813" rx="5" ry="5" style="stroke:#000000;stroke-width:0.5;" width="181.9961" x="2016" y="223"/><ellipse cx="2075.2266" cy="239" fill="#ADD1B2" rx="11" ry="11" style="stroke:#181818;stroke-width:1;"/><path d="M2078.1953,244.6406 Q2077.6172,244.9375 2076.9766,245.0781 Q2076.3359,245.2344 2075.6328,245.2344 Q2073.1328,245.2344 2071.8047,243.5938 Q2070.4922,241.9375 2070.4922,238.8125 Q2070.4922,235.6875 2071.8047,234.0313 Q2073.1328,232.375 2075.6328,232.375 Q2076.3359,232.375 2076.9766,232.5313 Q2077.6328,232.6875 2078.1953,232.9844 L2078.1953,235.7031 Q2077.5703,235.125 2076.9766,234.8594 Q2076.3828,234.5781 2075.7578,234.5781 Q2074.4141,234.5781 2073.7266,235.6563 Q2073.0391,236.7188 2073.0391,238.8125 Q2073.0391,240.9063 2073.7266,241.9844 Q2074.4141,243.0469 2075.7578,243.0469 Q2076.3828,243.0469 2076.9766,242.7813 Q2077.5703,242.5 2078.1953,241.9219 L2078.1953,244.6406 Z " fill="#000000"/><text fill="#000000" font-family="Arial" font-size="14" lengthAdjust="spacing" textLength="55.043" x="2095.7266" y="243.8467">Entrega</text><line style="stroke:#000000;stroke-width:0.5;" x1="2017" x2="2196.9961" y1="255" y2="255"/><text fill="#000000" font-family="Arial" font-size="14" lengthAdjust="spacing" textLength="52.2129" x="2022" y="271.9951">+id: str</text><text fill="#000000" font-family="Arial" font-size="14" lengthAdjust="spacing" textLength="91.0479" x="2022" y="288.292">+destino: str</text><text fill="#000000" font-family="Arial" font-size="14" lengthAdjust="spacing" textLength="85.709" x="2022" y="304.5889">+peso: float</text><text fill="#000000" font-family="Arial" font-size="14" lengthAdjust="spacing" textLength="91.4854" x="2022" y="320.8857">+prazo: float</text><text fill="#000000" font-family="Arial" font-size="14" lengthAdjust="spacing" textLength="169.9961" x="2022" y="337.1826">+origem: str {opcional}</text><line style="stroke:#000000;stroke-width:0.5;" x1="2017" x2="2196.9961" y1="344.4844" y2="344.4844"/><text fill="#000000" font-family="Arial" font-size="14" lengthAdjust="spacing" textLength="107.3721" x="2022" y="361.4795">+__repr__(): str</text></g><!--class Caminhao--><g class="entity" data-entity="Caminhao" data-source-line="29" data-uid="ent0003" id="entity_Caminhao"><rect fill="#FFFFFF" height="292.4531" rx="5" ry="5" style="stroke:#000000;stroke-width:0.5;" width="516.6836" x="802" y="7"/><ellipse cx="1020.7056" cy="23" fill="#ADD1B2" rx="11" ry="11" style="stroke:#181818;stroke-width:1;"/><path d="M1023.6743,28.6406 Q1023.0962,28.9375 1022.4556,29.0781 Q1021.8149,29.2344 1021.1118,29.2344 Q1018.6118,29.2344 1017.2837,27.5938 Q1015.9712,25.9375 1015.9712,22.8125 Q1015.9712,19.6875 1017.2837,18.0313 Q1018.6118,16.375 1021.1118,16.375 Q1021.8149,16.375 1022.4556,16.5313 Q1023.1118,16.6875 1023.6743,16.9844 L1023.6743,19.7031 Q1023.0493,19.125 1022.4556,18.8594 Q1021.8618,18.5781 1021.2368,18.5781 Q1019.8931,18.5781 1019.2056,19.6563 Q1018.5181,20.7188 1018.5181,22.8125 Q1018.5181,24.9063 1019.2056,25.9844 Q1019.8931,27.0469 1021.2368,27.0469 Q1021.8618,27.0469 1022.4556,26.7813 Q1023.0493,26.5 1023.6743,25.9219 L1023.6743,28.6406 Z " fill="#000000"/><text fill="#000000" font-family="Arial" font-size="14" lengthAdjust="spacing" textLength="70.7725" x="1041.2056" y="27.8467">Caminhao</text><line style="stroke:#000000;stroke-width:0.5;" x1="803" x2="1317.6836" y1="39" y2="39"/><text fill="#000000" font-family="Arial" font-size="14" lengthAdjust="spacing" textLength="52.2129" x="808" y="55.9951">+id: str</text><text fill="#000000" font-family="Arial" font-size="14" lengthAdjust="spacing" textLength="195.6514" x="808" y="72.292">+capacidade_kg_total: float</text><text fill="#000000" font-family="Arial" font-size="14" lengthAdjust="spacing" textLength="205.8506" x="808" y="88.5889">+capacidade_kg_usada: float</text><text fill="#000000" font-family="Arial" font-size="14" lengthAdjust="spacing" textLength="262.917" x="808" y="104.8857">+horas_operacao_maximas_dia: float</text><text fill="#000000" font-family="Arial" font-size="14" lengthAdjust="spacing" textLength="175.3418" x="808" y="121.1826">+tempo_rota_atual: float</text><text fill="#000000" font-family="Arial" font-size="14" lengthAdjust="spacing" textLength="252.9023" x="808" y="137.4795">+centro_origem: CentroDistribuicao</text><text fill="#000000" font-family="Arial" font-size="14" lengthAdjust="spacing" textLength="185.9785" x="808" y="153.7764">+entregas: List&lt;Entrega&gt;</text><text fill="#000000" font-family="Arial" font-size="14" lengthAdjust="spacing" textLength="115.7598" x="808" y="170.0732">+rota: List&lt;str&gt;</text><line style="stroke:#000000;stroke-width:0.5;" x1="803" x2="1317.6836" y1="177.375" y2="177.375"/><text fill="#000000" font-family="Arial" font-size="14" lengthAdjust="spacing" textLength="358.7158" x="808" y="194.3701">+adicionar_entrega_a_lista(entrega: Entrega): void</text><text fill="#000000" font-family="Arial" font-size="14" lengthAdjust="spacing" textLength="362.1133" x="808" y="210.667">+remover_entrega_da_lista(entrega: Entrega): void</text><text fill="#000000" font-family="Arial" font-size="14" lengthAdjust="spacing" textLength="504.6836" x="808" y="226.9639">+atualizar_rota_e_tempo(nova_rota: List&lt;str&gt;, tempo_total: float): void</text><text fill="#000000" font-family="Arial" font-size="14" lengthAdjust="spacing" textLength="358.7227" x="808" y="243.2607">+pode_adicionar_carga(peso_adicional: float): bool</text><text fill="#000000" font-family="Arial" font-size="14" lengthAdjust="spacing" textLength="316.5313" x="808" y="259.5576">+&#171;property&#187; capacidade_kg_disponivel: float</text><text fill="#000000" font-family="Arial" font-size="14" lengthAdjust="spacing" textLength="332.7939" x="808" y="275.8545">+&#171;property&#187; horas_disponiveis_para_rota: float</text><text fill="#000000" font-family="Arial" font-size="14" lengthAdjust="spacing" textLength="107.3721" x="808" y="292.1514">+__repr__(): str</text></g><!--class CentroDistribuicao--><g class="entity" data-entity="CentroDistribuicao" data-source-line="48" data-uid="ent0004" id="entity_CentroDistribuicao"><rect fill="#FFFFFF" height="113.1875" rx="5" ry="5" style="stroke:#000000;stroke-width:0.5;" width="362.4922" x="1926" y="74.5"/><ellipse cx="2037.665" cy="90.5" fill="#ADD1B2" rx="11" ry="11" style="stroke:#181818;stroke-width:1;"/><path d="M2040.6338,96.1406 Q2040.0557,96.4375 2039.415,96.5781 Q2038.7744,96.7344 2038.0713,96.7344 Q2035.5713,96.7344 2034.2432,95.0938 Q2032.9307,93.4375 2032.9307,90.3125 Q2032.9307,87.1875 2034.2432,85.5313 Q2035.5713,83.875 2038.0713,83.875 Q2038.7744,83.875 2039.415,84.0313 Q2040.0713,84.1875 2040.6338,84.4844 L2040.6338,87.2031 Q2040.0088,86.625 2039.415,86.3594 Q2038.8213,86.0781 2038.1963,86.0781 Q2036.8525,86.0781 2036.165,87.1563 Q2035.4775,88.2188 2035.4775,90.3125 Q2035.4775,92.4063 2036.165,93.4844 Q2036.8525,94.5469 2038.1963,94.5469 Q2038.8213,94.5469 2039.415,94.2813 Q2040.0088,94 2040.6338,93.4219 L2040.6338,96.1406 Z " fill="#000000"/><text fill="#000000" font-family="Arial" font-size="14" lengthAdjust="spacing" textLength="130.6621" x="2058.165" y="95.3467">CentroDistribuicao</text><line style="stroke:#000000;stroke-width:0.5;" x1="1927" x2="2287.4922" y1="106.5" y2="106.5"/><text fill="#000000" font-family="Arial" font-size="14" lengthAdjust="spacing" textLength="85.9893" x="1932" y="123.4951">+cidade: str</text><text fill="#000000" font-family="Arial" font-size="14" lengthAdjust="spacing" textLength="215.626" x="1932" y="139.792">+caminhoes: List&lt;Caminhao&gt;</text><line style="stroke:#000000;stroke-width:0.5;" x1="1927" x2="2287.4922" y1="147.0938" y2="147.0938"/><text fill="#000000" font-family="Arial" font-size="14" lengthAdjust="spacing" textLength="350.4922" x="1932" y="164.0889">+adicionar_caminhao(caminhao: Caminhao): void</text><text fill="#000000" font-family="Arial" font-size="14" lengthAdjust="spacing" textLength="107.3721" x="1932" y="180.3857">+__repr__(): str</text></g><!--class GrafoListaAdjacencia--><g class="entity" data-entity="GrafoListaAdjacencia" data-source-line="57" data-uid="ent0005" id="entity_GrafoListaAdjacencia"><rect fill="#FFFFFF" height="162.0781" rx="5" ry="5" style="stroke:#000000;stroke-width:0.5;" width="467.5537" x="1873" y="404"/><ellipse cx="2028.521" cy="420" fill="#ADD1B2" rx="11" ry="11" style="stroke:#181818;stroke-width:1;"/><path d="M2031.4897,425.6406 Q2030.9116,425.9375 2030.271,426.0781 Q2029.6304,426.2344 2028.9272,426.2344 Q2026.4272,426.2344 2025.0991,424.5938 Q2023.7866,422.9375 2023.7866,419.8125 Q2023.7866,416.6875 2025.0991,415.0313 Q2026.4272,413.375 2028.9272,413.375 Q2029.6304,413.375 2030.271,413.5313 Q2030.9272,413.6875 2031.4897,413.9844 L2031.4897,416.7031 Q2030.8647,416.125 2030.271,415.8594 Q2029.6772,415.5781 2029.0522,415.5781 Q2027.7085,415.5781 2027.021,416.6563 Q2026.3335,417.7188 2026.3335,419.8125 Q2026.3335,421.9063 2027.021,422.9844 Q2027.7085,424.0469 2029.0522,424.0469 Q2029.6772,424.0469 2030.271,423.7813 Q2030.8647,423.5 2031.4897,422.9219 L2031.4897,425.6406 Z " fill="#000000"/><text fill="#000000" font-family="Arial" font-size="14" lengthAdjust="spacing" textLength="148.0117" x="2049.021" y="424.8467">GrafoListaAdjacencia</text><line style="stroke:#000000;stroke-width:0.5;" x1="1874" x2="2339.5537" y1="436" y2="436"/><text fill="#000000" font-family="Arial" font-size="14" lengthAdjust="spacing" textLength="324.3926" x="1879" y="452.9951">#vertices: Dict&lt;str, List&lt;Tuple&lt;str, float&gt;&gt;&gt;</text><text fill="#000000" font-family="Arial" font-size="14" lengthAdjust="spacing" textLength="153.4463" x="1879" y="469.292">#tipo_fila_dijkstra: str</text><line style="stroke:#000000;stroke-width:0.5;" x1="1874" x2="2339.5537" y1="476.5938" y2="476.5938"/><text fill="#000000" font-family="Arial" font-size="14" lengthAdjust="spacing" textLength="282.9736" x="1879" y="493.5889">+__init__(tipo_fila_dijkstra: str = "heap")</text><text fill="#000000" font-family="Arial" font-size="14" lengthAdjust="spacing" textLength="425.626" x="1879" y="509.8857">+adicionar_aresta(origem: str, destino: str, peso: float): void</text><text fill="#000000" font-family="Arial" font-size="14" lengthAdjust="spacing" textLength="275.1191" x="1879" y="526.1826">#dijkstra(origem: str): Tuple[Dict, Dict]</text><text fill="#000000" font-family="Arial" font-size="14" lengthAdjust="spacing" textLength="455.5537" x="1879" y="542.4795">+caminho_mais_curto(origem: str, destino: str): Tuple[List, float]</text><text fill="#000000" font-family="Arial" font-size="14" lengthAdjust="spacing" textLength="107.3721" x="1879" y="558.7764">+__repr__(): str</text></g><g class="entity" data-entity="GMN6" data-source-line="68" data-uid="ent0007" id="entity_GMN6"><path d="M2402,447 L2402,481 L2341.27,485 L2402,489 L2402,522.6641 A5,5 0 0 0 2407,527.6641 L2781.1113,527.6641 A5,5 0 0 0 2786.1113,522.6641 L2786.1113,452 L2776.1113,442 L2407,442 A5,5 0 0 0 2402,447" fill="#FFFFE0" style="stroke:#000000;stroke-width:0.5;"/><path d="M2776.1113,442 L2776.1113,449.5 A2.5,2.5 0 0 0 2778.6113,452 L2786.1113,452 L2776.1113,442" fill="#FFFFE0" style="stroke:#000000;stroke-width:0.5;"/><text fill="#000000" font-family="Arial" font-size="13" lengthAdjust="spacing" textLength="363.1113" x="2408" y="459.0669">Outras implementa&#231;&#245;es de grafo (Matriz de Adjac&#234;ncia,</text><text fill="#000000" font-family="Arial" font-size="13" lengthAdjust="spacing" textLength="278.6367" x="2408" y="474.1997">Lista de Arestas, Dicion&#225;rio de Dicion&#225;rios,</text><text fill="#000000" font-family="Arial" font-size="13" lengthAdjust="spacing" textLength="337.9683" x="2408" y="489.3325">Grafo com Objetos, NetworkX) foram desenvolvidas</text><text fill="#000000" font-family="Arial" font-size="13" lengthAdjust="spacing" textLength="324.4351" x="2408" y="504.4653">para compara&#231;&#227;o, seguindo uma interface similar</text><text fill="#000000" font-family="Arial" font-size="13" lengthAdjust="spacing" textLength="178.5596" x="2408" y="519.5981">para 'caminho_mais_curto'.</text></g><!--class Roteirizador--><g class="entity" data-entity="Roteirizador" data-source-line="75" data-uid="ent0009" id="entity_Roteirizador"><rect fill="#FFFFFF" height="178.375" rx="5" ry="5" style="stroke:#000000;stroke-width:0.5;" width="487.1934" x="817" y="334"/><ellipse cx="1013.8135" cy="350" fill="#ADD1B2" rx="11" ry="11" style="stroke:#181818;stroke-width:1;"/><path d="M1016.7822,355.6406 Q1016.2041,355.9375 1015.5635,356.0781 Q1014.9229,356.2344 1014.2197,356.2344 Q1011.7197,356.2344 1010.3916,354.5938 Q1009.0791,352.9375 1009.0791,349.8125 Q1009.0791,346.6875 1010.3916,345.0313 Q1011.7197,343.375 1014.2197,343.375 Q1014.9229,343.375 1015.5635,343.5313 Q1016.2197,343.6875 1016.7822,343.9844 L1016.7822,346.7031 Q1016.1572,346.125 1015.5635,345.8594 Q1014.9697,345.5781 1014.3447,345.5781 Q1013.001,345.5781 1012.3135,346.6563 Q1011.626,347.7188 1011.626,349.8125 Q1011.626,351.9063 1012.3135,352.9844 Q1013.001,354.0469 1014.3447,354.0469 Q1014.9697,354.0469 1015.5635,353.7813 Q1016.1572,353.5 1016.7822,352.9219 L1016.7822,355.6406 Z " fill="#000000"/><text fill="#000000" font-family="Arial" font-size="14" lengthAdjust="spacing" textLength="85.0664" x="1034.3135" y="354.8467">Roteirizador</text><line style="stroke:#000000;stroke-width:0.5;" x1="818" x2="1303.1934" y1="366" y2="366"/><text fill="#000000" font-family="Arial" font-size="14" lengthAdjust="spacing" textLength="245.1025" x="823" y="382.9951">-centros: List&lt;CentroDistribuicao&gt;</text><text fill="#000000" font-family="Arial" font-size="14" lengthAdjust="spacing" textLength="179.2998" x="823" y="399.292">-entregas: List&lt;Entrega&gt;</text><text fill="#000000" font-family="Arial" font-size="14" lengthAdjust="spacing" textLength="376.4141" x="823" y="415.5889">-grafo: GrafoListaAdjacencia 'ou outra interface Grafo</text><line style="stroke:#000000;stroke-width:0.5;" x1="818" x2="1303.1934" y1="422.8906" y2="422.8906"/><text fill="#000000" font-family="Arial" font-size="14" lengthAdjust="spacing" textLength="241.7051" x="823" y="439.8857">+__init__(centros, entregas, grafo)</text><text fill="#000000" font-family="Arial" font-size="14" lengthAdjust="spacing" textLength="219.7822" x="823" y="456.1826">+alocar_entregas(): List&lt;Dict&gt;</text><text fill="#000000" font-family="Arial" font-size="14" lengthAdjust="spacing" textLength="475.1934" x="823" y="472.4795">-centro_mais_proximo(destino: str): Tuple[CentroDistribuicao, float]</text><text fill="#000000" font-family="Arial" font-size="14" lengthAdjust="spacing" textLength="335.6992" x="823" y="488.7764">-_calcular_melhor_rota_para_destinos(...): Tuple</text><text fill="#000000" font-family="Arial" font-size="14" lengthAdjust="spacing" textLength="260.415" x="823" y="505.0732">-_verificar_prazos_para_rota(...): bool</text></g><!--class Simulador--><g class="entity" data-entity="Simulador" data-source-line="87" data-uid="ent0010" id="entity_Simulador"><rect fill="#FFFFFF" height="64.2969" rx="5" ry="5" style="stroke:#000000;stroke-width:0.5;" width="421.3906" x="267" y="391"/><ellipse cx="437.9634" cy="407" fill="#ADD1B2" rx="11" ry="11" style="stroke:#181818;stroke-width:1;"/><path d="M440.9321,412.6406 Q440.354,412.9375 439.7134,413.0781 Q439.0728,413.2344 438.3696,413.2344 Q435.8696,413.2344 434.5415,411.5938 Q433.229,409.9375 433.229,406.8125 Q433.229,403.6875 434.5415,402.0313 Q435.8696,400.375 438.3696,400.375 Q439.0728,400.375 439.7134,400.5313 Q440.3696,400.6875 440.9321,400.9844 L440.9321,403.7031 Q440.3071,403.125 439.7134,402.8594 Q439.1196,402.5781 438.4946,402.5781 Q437.1509,402.5781 436.4634,403.6563 Q435.7759,404.7188 435.7759,406.8125 Q435.7759,408.9063 436.4634,409.9844 Q437.1509,411.0469 438.4946,411.0469 Q439.1196,411.0469 439.7134,410.7813 Q440.3071,410.5 440.9321,409.9219 L440.9321,412.6406 Z " fill="#000000"/><text fill="#000000" font-family="Arial" font-size="14" lengthAdjust="spacing" textLength="70.9639" x="458.4634" y="411.8467">Simulador</text><line style="stroke:#000000;stroke-width:0.5;" x1="268" x2="687.3906" y1="423" y2="423"/><line style="stroke:#000000;stroke-width:0.5;" x1="268" x2="687.3906" y1="431" y2="431"/><text fill="#000000" font-family="Arial" font-size="14" lengthAdjust="spacing" textLength="409.3906" x="273" y="447.9951">+simular_cenario_completo(): void ' Nome mais descritivo</text></g><g class="entity" data-entity="GMN11" data-source-line="93" data-uid="ent0012" id="entity_GMN11"><path d="M6,392.5 L6,453.0313 A5,5 0 0 0 11,458.0313 L200.7817,458.0313 A5,5 0 0 0 205.7817,453.0313 L205.7817,427 L266.65,423 L205.7817,419 L205.7817,397.5 L195.7817,387.5 L11,387.5 A5,5 0 0 0 6,392.5" fill="#FFFFE0" style="stroke:#000000;stroke-width:0.5;"/><path d="M195.7817,387.5 L195.7817,395 A2.5,2.5 0 0 0 198.2817,397.5 L205.7817,397.5 L195.7817,387.5" fill="#FFFFE0" style="stroke:#000000;stroke-width:0.5;"/><text fill="#000000" font-family="Arial" font-size="13" lengthAdjust="spacing" textLength="178.7817" x="12" y="404.5669">Respons&#225;vel por configurar</text><text fill="#000000" font-family="Arial" font-size="13" lengthAdjust="spacing" textLength="155.9111" x="12" y="419.6997">e executar a simula&#231;&#227;o,</text><text fill="#000000" font-family="Arial" font-size="13" lengthAdjust="spacing" textLength="158.6152" x="12" y="434.8325">utilizando o Roteirizador</text><text fill="#000000" font-family="Arial" font-size="13" lengthAdjust="spacing" textLength="144.0156" x="12" y="449.9653">e exibindo resultados.</text></g><!--link CentroDistribuicao to Caminhao--><g class="link" data-entity-1="CentroDistribuicao" data-entity-2="Caminhao" data-source-line="100" data-uid="lnk14" id="link_CentroDistribuicao_Caminhao"><path codeLine="100" d="M1914.0117,159.5679 C1886.3017,162.8179 1869.89,164.22 1843,166 C1668.5,177.56 1477.635,174.4337 1325.145,168.2337" fill="none" id="CentroDistribuicao-Caminhao" style="stroke:#000000;stroke-width:1;"/><polygon fill="none" points="1925.93,158.17,1919.5049,154.8962,1914.0117,159.5679,1920.4368,162.8417,1925.93,158.17" style="stroke:#000000;stroke-width:1;"/><polygon fill="#000000" points="1319.15,167.99,1327.9801,172.3523,1324.1459,168.1931,1328.3051,164.3589,1319.15,167.99" style="stroke:#000000;stroke-width:1;"/><text fill="#000000" font-family="Arial" font-size="13" lengthAdjust="spacing" textLength="41.6025" x="1575.647" y="127.0669">possui</text><path d="M1387,141.1328 L1387,156.1328 A5,5 0 0 0 1392,161.1328 L1800,161.1328 A5,5 0 0 0 1805,156.1328 L1805,146.1328 L1795,136.1328 L1392,136.1328 A5,5 0 0 0 1387,141.1328" fill="#FFFFE0" style="stroke:#000000;stroke-width:0.5;"/><path d="M1795,136.1328 L1795,143.6328 A2.5,2.5 0 0 0 1797.5,146.1328 L1805,146.1328 L1795,136.1328" fill="#FFFFE0" style="stroke:#000000;stroke-width:0.5;"/><text fill="#000000" font-family="Arial" font-size="13" lengthAdjust="spacing" textLength="397.8965" x="1393" y="153.1997">Um Centro de Distribui&#231;&#227;o pode ter zero ou mais caminh&#245;es.</text><text fill="#000000" font-family="Arial" font-size="13" lengthAdjust="spacing" textLength="8.271" x="1909.539" y="171.8066">1</text><text fill="#000000" font-family="Arial" font-size="13" lengthAdjust="spacing" textLength="23.0356" x="1326.3305" y="180.65">0..*</text></g><!--link Caminhao to CentroDistribuicao--><g class="link" data-entity-1="Caminhao" data-entity-2="CentroDistribuicao" data-source-line="106" data-uid="lnk16" id="link_Caminhao_CentroDistribuicao"><path codeLine="106" d="M1319.12,112.58 C1329.2,111.6 1339.19,110.73 1349,110 C1567.95,93.72 1623.62,101.26 1843,110 C1869.77,111.07 1898.05,112.74 1925.73,114.69" fill="none" id="Caminhao-CentroDistribuicao" style="stroke:#000000;stroke-width:1;"/><text fill="#000000" font-family="Arial" font-size="13" lengthAdjust="spacing" textLength="167.6416" x="1512.4321" y="62.0669">origina-se de / pertence a</text><path d="M1354,76.1328 L1354,91.1328 A5,5 0 0 0 1359,96.1328 L1833,96.1328 A5,5 0 0 0 1838,91.1328 L1838,81.1328 L1828,71.1328 L1359,71.1328 A5,5 0 0 0 1354,76.1328" fill="#FFFFE0" style="stroke:#000000;stroke-width:0.5;"/><path d="M1828,71.1328 L1828,78.6328 A2.5,2.5 0 0 0 1830.5,81.1328 L1838,81.1328 L1828,71.1328" fill="#FFFFE0" style="stroke:#000000;stroke-width:0.5;"/><text fill="#000000" font-family="Arial" font-size="13" lengthAdjust="spacing" textLength="463.5059" x="1360" y="88.1997">Cada Caminh&#227;o est&#225; vinculado a um Centro de Distribui&#231;&#227;o de origem.</text><text fill="#000000" font-family="Arial" font-size="13" lengthAdjust="spacing" textLength="8.271" x="1326.9253" y="123.6648">1</text><text fill="#000000" font-family="Arial" font-size="13" lengthAdjust="spacing" textLength="8.271" x="1909.9093" y="126.3841">1</text></g><!--link Caminhao to Entrega--><g class="link" data-entity-1="Caminhao" data-entity-2="Entrega" data-source-line="103" data-uid="lnk15" id="link_Caminhao_Entrega"><path codeLine="103" d="M1330.9035,230.628 C1340.9435,232.738 1339.18,232.23 1349,234 C1587.3,276.91 1867.2224,289.9888 2009.8424,294.0588" fill="none" id="Caminhao-Entrega" style="stroke:#000000;stroke-width:1;"/><polygon fill="none" points="1319.16,228.16,1324.2091,233.3085,1330.9035,230.628,1325.8544,225.4795,1319.16,228.16" style="stroke:#000000;stroke-width:1;"/><polygon fill="#000000" points="2015.84,294.23,2006.9578,289.9749,2010.842,294.0874,2006.7296,297.9716,2015.84,294.23" style="stroke:#000000;stroke-width:1;"/><text fill="#000000" font-family="Arial" font-size="13" lengthAdjust="spacing" textLength="68.0342" x="1562.3755" y="195.0669">transporta</text><path d="M1406,209.1328 L1406,224.1328 A5,5 0 0 0 1411,229.1328 L1781,229.1328 A5,5 0 0 0 1786,224.1328 L1786,214.1328 L1776,204.1328 L1411,204.1328 A5,5 0 0 0 1406,209.1328" fill="#FFFFE0" style="stroke:#000000;stroke-width:0.5;"/><path d="M1776,204.1328 L1776,211.6328 A2.5,2.5 0 0 0 1778.5,214.1328 L1786,214.1328 L1776,204.1328" fill="#FFFFE0" style="stroke:#000000;stroke-width:0.5;"/><text fill="#000000" font-family="Arial" font-size="13" lengthAdjust="spacing" textLength="359.7852" x="1412" y="221.1997">Um Caminh&#227;o pode transportar zero ou mais entregas.</text><text fill="#000000" font-family="Arial" font-size="13" lengthAdjust="spacing" textLength="8.271" x="1326.9664" y="242.6761">1</text><text fill="#000000" font-family="Arial" font-size="13" lengthAdjust="spacing" textLength="23.0356" x="1984.9816" y="306.7491">0..*</text></g><!--link Roteirizador to CentroDistribuicao--><g class="link" data-entity-1="Roteirizador" data-entity-2="CentroDistribuicao" data-source-line="110" data-uid="lnk17" id="link_Roteirizador_CentroDistribuicao"><path codeLine="110" d="M1304.3,370.5 C1319.4,367.8 1334.39,365.27 1349,363 C1458.05,346.04 1758.6,383.11 1843,312 C1880.77,280.18 1838.68,240.52 1873,205 C1888.04,189.43 1900.9609,179.7881 1920.6109,170.0781" fill="none" id="Roteirizador-to-CentroDistribuicao" style="stroke:#000000;stroke-width:1;stroke-dasharray:7.0,7.0;"/><polygon fill="#000000" points="1925.99,167.42,1916.1493,167.821,1921.5074,169.6351,1919.6934,174.9932,1925.99,167.42" style="stroke:#000000;stroke-width:1;"/><text fill="#000000" font-family="Arial" font-size="13" lengthAdjust="spacing" textLength="38.9619" x="1577" y="308.0669">utiliza</text></g><!--link Roteirizador to Entrega--><g class="link" data-entity-1="Roteirizador" data-entity-2="Entrega" data-source-line="111" data-uid="lnk18" id="link_Roteirizador_Entrega"><path codeLine="111" d="M1304.35,418.1 C1494.71,412.91 1743.46,402.77 1843,384 C1901.91,372.89 1960.1025,353.888 2010.1225,335.118" fill="none" id="Roteirizador-to-Entrega" style="stroke:#000000;stroke-width:1;stroke-dasharray:7.0,7.0;"/><polygon fill="#000000" points="2015.74,333.01,2005.9084,332.4269,2011.0587,334.7666,2008.719,339.917,2015.74,333.01" style="stroke:#000000;stroke-width:1;"/><text fill="#000000" font-family="Arial" font-size="13" lengthAdjust="spacing" textLength="58.208" x="1567" y="380.0669">processa</text></g><!--link Roteirizador to GrafoListaAdjacencia--><g class="link" data-entity-1="Roteirizador" data-entity-2="GrafoListaAdjacencia" data-source-line="112" data-uid="lnk19" id="link_Roteirizador_GrafoListaAdjacencia"><path codeLine="112" d="M1304.21,441.98 C1319.36,443.04 1334.39,444.06 1349,445 C1524.49,456.35 1717.0372,466.4558 1866.7472,473.8058" fill="none" id="Roteirizador-to-GrafoListaAdjacencia" style="stroke:#000000;stroke-width:1;stroke-dasharray:7.0,7.0;"/><polygon fill="#000000" points="1872.74,474.1,1863.947,469.6635,1867.746,473.8548,1863.5547,477.6539,1872.74,474.1" style="stroke:#000000;stroke-width:1;"/><text fill="#000000" font-family="Arial" font-size="13" lengthAdjust="spacing" textLength="38.9619" x="1577" y="441.0669">utiliza</text></g><!--link Simulador to Roteirizador--><g class="link" data-entity-1="Simulador" data-entity-2="Roteirizador" data-source-line="114" data-uid="lnk20" id="link_Simulador_Roteirizador"><path codeLine="114" d="M688.25,423 C730.02,423 768.21,423 810.97,423" fill="none" id="Simulador-to-Roteirizador" style="stroke:#000000;stroke-width:1;stroke-dasharray:7.0,7.0;"/><polygon fill="#000000" points="816.97,423,807.97,419,811.97,423,807.97,427,816.97,423" style="stroke:#000000;stroke-width:1;"/><text fill="#000000" font-family="Arial" font-size="13" lengthAdjust="spacing" textLength="52.1396" x="719" y="419.0669">executa</text></g><!--SRC=[ZLVDRXit4BxhAGREmN8hgSbLI0KuJbeKQ1CWIO4MHR2WTYcPCPUp9RbouY2FqNk37ehqMlJMczwcw4Fq8xchtPNNGNsnb-JyV_FDMCkD9yzarVRIKw6ipBrYCt5NobJ2YfBM8h_QMgvDSS6QBRsqmZXSIUCdarDwB3VAA5CmCKddbMQQSfL3Xz0p2YgebFeIWW8V-pzChiHPJtskXNFdtbkrhhty9cVpGjr8kjzxKiYDgBN_Yer_Aaf9vrO9tRjtbwBWQsMsj17QoTvDT3jdQwIb1_UFhTAx2U7dqL60tyPK_FFdt__- -ajyS6ujNwUxHngFanJRGjh-wVkUViDUVahzZr9hlhvJqI2lmYLtfPiajvyOR-LMDFe_LyMIdBVfemWrCDmxgQJ3vqQpyCs15JV34qRrPHbbw5rRlFVfBikih6oMJS-IJZYNlBWGfJANWaVTo57iN1MYaDdLDlFiXHvO7DxNJXHYS0-y29Tn9Qt81MUbUADA71Hg-CpBikBCGdqcV7ri0mYrdBN1NSJFnyf5g2ceJSzaogPReZBEFsoIkqgNGNLp0Rbqc6NfJXGgPifcZOfCP1elnRJvNhQLGkfsh8f6fInv9pkXudz9nV3K3Op5Q6KMGvyQtedioCaPfRJqipxGLJ7ItdcV2xiLqm2Jms5FRCsiazZ3XvKD5V5lLoiQ5h1GhcAZTd9OWO54AkdXfN9PQ9N6-PxGtO2xLS0MUicH0Vm2DbcsHMsnUbS1y-P-slwnFC1xaBaHtqxfEOwaWtCYTYkfijAo3D_xt_U_CLLMWVGgeGdNNrkn0KC6hmI8ZSwBro9lMJ756P_41_5IXhicqdi0ZbTvYEknocEvPod2bpMCfk-OozKgnNhFAq1XepI0fbvVuO7eyjGc8ij0DHvXtV6OlgIJIocgaxFZn64C1EZs26H6VGh21EZefv_AUws1lYmUn3X-2i7DOeYl1WK54G0tUMqztstpe2Kafad7gxlg5uaw3J_UZAOUaizgEEg6XVrBkb2_RQhdTmAWl3agw0oYNQ5ZfboC2hdRVx2AmtdlqmM1192SItgsVYqz3kcfzDTihtuuemsdUGYqxLZl07i7aJXa8H5-HyZDoCbj7OT7NGAGnakxGJZaL8dYsbRcz7PQJnSJQOeulzg-Uuw_5QB3aBKD3kU9Mm_jTQip4_Zcd-BMUKpTSXpkfrmJXwptd8yFnt7Rk3EZrk0i5QR5g-QyesaNgX_z2G1RzGDAYG1fOTpmT1HKjsCTG6mEBj5vZIHdQUr9V1sfhj7dfel5ejNN2A6lrKO59-Dqxd5ZypZIy84ANwWI9hfwdD9vMg3OKM1tx4JOUBXKNXKuSZ8WfoEYW64SrIQH_I2dBge69Khqj-8iu4e3XzEcUs7hAMC92vaAICmjZEouRIKTzabqqi53Q7qk0-Ux_GVC1xXdWLMpKTlQHYHAaczaNdk13P6IzGHYtDNO9m6yj5tsSTZ8gNK4ELeB-o7ENH-zWPcnJuKGGy38GmH0VvyQ6Iad3qw8v_CLdTnVB3uxwTQS9LnthbOfJZQabRbQqlTbCvXICpUQ6kP7AJ2CBTr8t0FICMcfwGA1B2QJW_fZk-sIjoGV5swsNeoOJheEjWvFZsosq3-sE9_7NoDvM58WM6N47EY1wYye379q9n9uvCS5jhUU9q3v_WFjWBM805Ir_aIES9AO7AvD1bIpMAp67MjGSVjrbpEqCAQa6tapIZUTpadNMk7rG7pP8ZLWwzc1gOtVVop1KsYnifqCZjT0MjfBG4O_rxBNboaeDv8CbAibYGLiF44407VJ4BJ_c8e9pEF_D8mLME0rgY9G6_pVLJlkLenuqdT_yHy0]--></g></svg>